<svg id="visual" viewBox="0 0 900 600" width="900" height="600" xmlns="http://www.w3.org/2000/svg" xmlns:xlink="http://www.w3.org/1999/xlink" version="1.1"><path d="M0 509L10.7 515.3C21.3 521.7 42.7 534.3 64.2 535.3C85.7 536.3 107.3 525.7 128.8 523C150.3 520.3 171.7 525.7 193 525.5C214.3 525.3 235.7 519.7 257 523.2C278.3 526.7 299.7 539.3 321.2 540C342.7 540.7 364.3 529.3 385.8 525.2C407.3 521 428.7 524 450 523.8C471.3 523.7 492.7 520.3 514.2 524C535.7 527.7 557.3 538.3 578.8 536.8C600.3 535.3 621.7 521.7 643 518.7C664.3 515.7 685.7 523.3 707 522.5C728.3 521.7 749.7 512.3 771.2 512.3C792.7 512.3 814.3 521.7 835.8 525.5C857.3 529.3 878.7 527.7 889.3 526.8L900 526L900 601L889.3 601C878.7 601 857.3 601 835.8 601C814.3 601 792.7 601 771.2 601C749.7 601 728.3 601 707 601C685.7 601 664.3 601 643 601C621.7 601 600.3 601 578.8 601C557.3 601 535.7 601 514.2 601C492.7 601 471.3 601 450 601C428.7 601 407.3 601 385.8 601C364.3 601 342.7 601 321.2 601C299.7 601 278.3 601 257 601C235.7 601 214.3 601 193 601C171.7 601 150.3 601 128.8 601C107.3 601 85.7 601 64.2 601C42.7 601 21.3 601 10.7 601L0 601Z" fill="#004766"></path><path d="M0 532L10.7 535.3C21.3 538.7 42.7 545.3 64.2 546.5C85.7 547.7 107.3 543.3 128.8 545.3C150.3 547.3 171.7 555.7 193 556.2C214.3 556.7 235.7 549.3 257 544C278.3 538.7 299.7 535.3 321.2 535.8C342.7 536.3 364.3 540.7 385.8 538.7C407.3 536.7 428.7 528.3 450 523.2C471.3 518 492.7 516 514.2 520.2C535.7 524.3 557.3 534.7 578.8 536.8C600.3 539 621.7 533 643 529.2C664.3 525.3 685.7 523.7 707 525.8C728.3 528 749.7 534 771.2 538.3C792.7 542.7 814.3 545.3 835.8 547.7C857.3 550 878.7 552 889.3 553L900 554L900 601L889.3 601C878.7 601 857.3 601 835.8 601C814.3 601 792.7 601 771.2 601C749.7 601 728.3 601 707 601C685.7 601 664.3 601 643 601C621.7 601 600.3 601 578.8 601C557.3 601 535.7 601 514.2 601C492.7 601 471.3 601 450 601C428.7 601 407.3 601 385.8 601C364.3 601 342.7 601 321.2 601C299.7 601 278.3 601 257 601C235.7 601 214.3 601 193 601C171.7 601 150.3 601 128.8 601C107.3 601 85.7 601 64.2 601C42.7 601 21.3 601 10.7 601L0 601Z" fill="#00354c"></path><path d="M0 542L10.7 540.7C21.3 539.3 42.7 536.7 64.2 541.8C85.7 547 107.3 560 128.8 559.5C150.3 559 171.7 545 193 543.5C214.3 542 235.7 553 257 558C278.3 563 299.7 562 321.2 558.3C342.7 554.7 364.3 548.3 385.8 548C407.3 547.7 428.7 553.3 450 557C471.3 560.7 492.7 562.3 514.2 562.8C535.7 563.3 557.3 562.7 578.8 564.2C600.3 565.7 621.7 569.3 643 571C664.3 572.7 685.7 572.3 707 566.8C728.3 561.3 749.7 550.7 771.2 549.8C792.7 549 814.3 558 835.8 559C857.3 560 878.7 553 889.3 549.5L900 546L900 601L889.3 601C878.7 601 857.3 601 835.8 601C814.3 601 792.7 601 771.2 601C749.7 601 728.3 601 707 601C685.7 601 664.3 601 643 601C621.7 601 600.3 601 578.8 601C557.3 601 535.7 601 514.2 601C492.7 601 471.3 601 450 601C428.7 601 407.3 601 385.8 601C364.3 601 342.7 601 321.2 601C299.7 601 278.3 601 257 601C235.7 601 214.3 601 193 601C171.7 601 150.3 601 128.8 601C107.3 601 85.7 601 64.2 601C42.7 601 21.3 601 10.7 601L0 601Z" fill="#012334"></path><path d="M0 553L10.7 557.5C21.3 562 42.7 571 64.2 571.3C85.7 571.7 107.3 563.3 128.8 559.2C150.3 555 171.7 555 193 553C214.3 551 235.7 547 257 545C278.3 543 299.7 543 321.2 548.8C342.7 554.7 364.3 566.3 385.8 570.7C407.3 575 428.7 572 450 572C471.3 572 492.7 575 514.2 574.8C535.7 574.7 557.3 571.3 578.8 566.7C600.3 562 621.7 556 643 552.3C664.3 548.7 685.7 547.3 707 551.3C728.3 555.3 749.7 564.7 771.2 569.7C792.7 574.7 814.3 575.3 835.8 574.2C857.3 573 878.7 570 889.3 568.5L900 567L900 601L889.3 601C878.7 601 857.3 601 835.8 601C814.3 601 792.7 601 771.2 601C749.7 601 728.3 601 707 601C685.7 601 664.3 601 643 601C621.7 601 600.3 601 578.8 601C557.3 601 535.7 601 514.2 601C492.7 601 471.3 601 450 601C428.7 601 407.3 601 385.8 601C364.3 601 342.7 601 321.2 601C299.7 601 278.3 601 257 601C235.7 601 214.3 601 193 601C171.7 601 150.3 601 128.8 601C107.3 601 85.7 601 64.2 601C42.7 601 21.3 601 10.7 601L0 601Z" fill="#011a26"></path><path d="M0 571L10.7 571.2C21.3 571.3 42.7 571.7 64.2 573C85.7 574.3 107.3 576.7 128.8 576.7C150.3 576.7 171.7 574.3 193 571.5C214.3 568.7 235.7 565.3 257 567C278.3 568.7 299.7 575.3 321.2 576.8C342.7 578.3 364.3 574.7 385.8 572.7C407.3 570.7 428.7 570.3 450 572.7C471.3 575 492.7 580 514.2 580.2C535.7 580.3 557.3 575.7 578.8 574.2C600.3 572.7 621.7 574.3 643 574C664.3 573.7 685.7 571.3 707 569.5C728.3 567.7 749.7 566.3 771.2 567.7C792.7 569 814.3 573 835.8 573C857.3 573 878.7 569 889.3 567L900 565L900 601L889.3 601C878.7 601 857.3 601 835.8 601C814.3 601 792.7 601 771.2 601C749.7 601 728.3 601 707 601C685.7 601 664.3 601 643 601C621.7 601 600.3 601 578.8 601C557.3 601 535.7 601 514.2 601C492.7 601 471.3 601 450 601C428.7 601 407.3 601 385.8 601C364.3 601 342.7 601 321.2 601C299.7 601 278.3 601 257 601C235.7 601 214.3 601 193 601C171.7 601 150.3 601 128.8 601C107.3 601 85.7 601 64.2 601C42.7 601 21.3 601 10.7 601L0 601Z" fill="#021822"></path><path d="M0 577L10.7 578.3C21.3 579.7 42.7 582.3 64.2 583.8C85.7 585.3 107.3 585.7 128.8 584.2C150.3 582.7 171.7 579.3 193 577.7C214.3 576 235.7 576 257 577.7C278.3 579.3 299.7 582.7 321.2 585.2C342.7 587.7 364.3 589.3 385.8 588.2C407.3 587 428.7 583 450 582C471.3 581 492.7 583 514.2 583.3C535.7 583.7 557.3 582.3 578.8 583C600.3 583.7 621.7 586.3 643 585.7C664.3 585 685.7 581 707 579.7C728.3 578.3 749.7 579.7 771.2 582C792.7 584.3 814.3 587.7 835.8 587.3C857.3 587 878.7 583 889.3 581L900 579L900 601L889.3 601C878.7 601 857.3 601 835.8 601C814.3 601 792.7 601 771.2 601C749.7 601 728.3 601 707 601C685.7 601 664.3 601 643 601C621.7 601 600.3 601 578.8 601C557.3 601 535.7 601 514.2 601C492.7 601 471.3 601 450 601C428.7 601 407.3 601 385.8 601C364.3 601 342.7 601 321.2 601C299.7 601 278.3 601 257 601C235.7 601 214.3 601 193 601C171.7 601 150.3 601 128.8 601C107.3 601 85.7 601 64.2 601C42.7 601 21.3 601 10.7 601L0 601Z" fill="#02161e"></path></svg>