<svg width="1172" height="70" viewBox="0 0 1172 70" fill="none" xmlns="http://www.w3.org/2000/svg">
<path d="M0 1.73085L17.7265 6.15963C35.3798 10.5884 70.8327 19.4459 106.359 18.2649C141.885 17.1208 177.485 5.90128 213.011 5.79056C248.537 5.67984 283.99 16.6042 319.517 23.6902C355.043 30.7762 390.642 33.9502 426.169 38.0837C461.695 42.2172 497.148 47.2365 532.674 38.1575C568.2 29.0416 603.8 5.79056 639.326 2.28445C674.852 -1.22167 710.305 15.0172 745.832 18.4495C781.358 21.9187 816.957 12.5444 852.484 16.4934C888.01 20.4424 923.463 37.6408 958.989 35.3895C994.515 33.1013 1030.11 11.3265 1065.64 3.64999C1101.17 -4.06346 1136.62 2.35826 1154.27 5.53221L1172 8.74308V69.6387H1154.27C1136.62 69.6387 1101.17 69.6387 1065.64 69.6387C1030.11 69.6387 994.515 69.6387 958.989 69.6387C923.463 69.6387 888.01 69.6387 852.484 69.6387C816.957 69.6387 781.358 69.6387 745.832 69.6387C710.305 69.6387 674.852 69.6387 639.326 69.6387C603.8 69.6387 568.2 69.6387 532.674 69.6387C497.148 69.6387 461.695 69.6387 426.169 69.6387C390.642 69.6387 355.043 69.6387 319.517 69.6387C283.99 69.6387 248.537 69.6387 213.011 69.6387C177.485 69.6387 141.885 69.6387 106.359 69.6387C70.8327 69.6387 35.3798 69.6387 17.7265 69.6387H0V1.73085Z" fill="#032174"/>
<path d="M0 41.3644L17.7265 44.0814C35.3798 46.7606 70.8327 52.1945 106.359 49.5908C141.885 47.0247 177.485 36.4588 213.011 32.9494C248.537 29.4023 283.99 32.9494 319.517 31.5532C355.043 30.157 390.642 23.8929 426.169 20.2325C461.695 16.5722 497.148 15.591 532.674 17.7042C568.2 19.8551 603.8 25.1381 639.326 31.8551C674.852 38.6097 710.305 46.7606 745.832 46.9115C781.358 47.0248 816.957 39.1003 852.484 36.1569C888.01 33.1758 923.463 35.2135 958.989 35.2513C994.515 35.3267 1030.11 33.4399 1065.64 36.9494C1101.17 40.4965 1136.62 49.4021 1154.27 53.8926L1172 58.3454V69.6661H1154.27C1136.62 69.6661 1101.17 69.6661 1065.64 69.6661C1030.11 69.6661 994.515 69.6661 958.989 69.6661C923.463 69.6661 888.01 69.6661 852.484 69.6661C816.957 69.6661 781.358 69.6661 745.832 69.6661C710.305 69.6661 674.852 69.6661 639.326 69.6661C603.8 69.6661 568.2 69.6661 532.674 69.6661C497.148 69.6661 461.695 69.6661 426.169 69.6661C390.642 69.6661 355.043 69.6661 319.517 69.6661C283.99 69.6661 248.537 69.6661 213.011 69.6661C177.485 69.6661 141.885 69.6661 106.359 69.6661C70.8327 69.6661 35.3798 69.6661 17.7265 69.6661H0V41.3644Z" fill="#021469"/>
<path d="M0 55.3268L17.7265 54.2702C35.3798 53.1758 70.8327 51.0627 106.359 47.7797C141.885 44.4967 177.485 40.1193 213.011 35.9684C248.537 31.8175 283.99 27.893 319.517 31.4779C355.043 35.0628 390.642 46.157 426.169 51.9306C461.695 57.7041 497.148 58.2324 532.674 59.7796C568.2 61.3645 603.8 64.0059 639.326 63.2512C674.852 62.4965 710.305 58.3456 745.832 55.7041C781.358 53.0626 816.957 51.9306 852.484 48.157C888.01 44.3835 923.463 37.9684 958.989 33.8175C994.515 29.6666 1030.11 27.7798 1065.64 30.4968C1101.17 33.176 1136.62 40.4967 1154.27 44.1193L1172 47.7797V69.6663H1154.27C1136.62 69.6663 1101.17 69.6663 1065.64 69.6663C1030.11 69.6663 994.515 69.6663 958.989 69.6663C923.463 69.6663 888.01 69.6663 852.484 69.6663C816.957 69.6663 781.358 69.6663 745.832 69.6663C710.305 69.6663 674.852 69.6663 639.326 69.6663C603.8 69.6663 568.2 69.6663 532.674 69.6663C497.148 69.6663 461.695 69.6663 426.169 69.6663C390.642 69.6663 355.043 69.6663 319.517 69.6663C283.99 69.6663 248.537 69.6663 213.011 69.6663C177.485 69.6663 141.885 69.6663 106.359 69.6663C70.8327 69.6663 35.3798 69.6663 17.7265 69.6663H0V55.3268Z" fill="#03045E"/>
</svg>
